# xmcd
#
# Track frame offsets:
# 150
# 18193
# 35407
# 63084
# 80722
# 102627
# 122099
# 144347
# 163837
# 186289
# 206365
# 227930
# 245317
# 262993
# 281102
# 303712
#
# Disc length: 4343 seconds
#
#
# Revision: 0
# Processed by: cddbd v1.5.1PL0 Copyright (c) Steve Scherf et al.
# Submitted via: FreeRIP 2.942 
#
DISCID=e310f510
DTITLE=Various Artist - A Good Day For The Blues
DYEAR=1900
DGENRE=Blues
TTITLE0=A Good Day For The Blues
TTITLE1=Blind Side
TTITLE2=What Passes For Love
TTITLE3=Piece Of Your Soul
TTITLE4=Down And Out
TTITLE5=Pray For Rain
TTITLE6=Christi Don't Care
TTITLE7=Money Man
TTITLE8=When I Leave Here
TTITLE9=Top Of The Hill
TTITLE10=Think Twice
TTITLE11=Chemistry
TTITLE12=Paradise
TTITLE13=Already Gone
TTITLE14=Come To This
TTITLE15=I'll Be Your Fool
EXTD=
EXTT0=
EXTT1=
EXTT2=
EXTT3=
EXTT4=
EXTT5=
EXTT6=
EXTT7=
EXTT8=
EXTT9=
EXTT10=
EXTT11=
EXTT12=
EXTT13=
EXTT14=
EXTT15=
PLAYORDER=
